<svg width="800" height="600" viewBox="0 0 800 600" fill="none" xmlns="http://www.w3.org/2000/svg">
  <rect width="800" height="600" fill="white"/>

  <text x="400" y="50" text-anchor="middle" font-family="Arial, sans-serif" font-size="28" font-weight="bold" fill="#2D7FF9">Huidige situatie</text>

 <text x="350" y="110" font-family="Arial, sans-serif" font-size="16" font-weight="bold" fill="black">API Spec</text>
    <text x="210" y="240" font-family="Arial, sans-serif" font-size="18" font-weight="bold" fill="black">/zaken</text>
    <text x="90" y="330" font-family="Arial, sans-serif" font-size="14" fill="black">aanmaken</text>
    <text x="180" y="345" font-family="Arial, sans-serif" font-size="14" fill="black">wijzigen</text>
    <text x="260" y="330" font-family="Arial, sans-serif" font-size="14" fill="black">ophalen</text>
    <text x="330" y="345" font-family="Arial, sans-serif" font-size="14" fill="black">pagineren</text>

    <text x="345" y="185" font-family="Arial, sans-serif" font-size="12" fill="black">/taken</text>
    <text x="420" y="195" font-family="Arial, sans-serif" font-size="12" fill="black">/endpoint</text>
    <text x="490" y="135" font-family="Arial, sans-serif" font-size="12" fill="black">/endpoint</text>
  <g stroke="#333" stroke-width="2">
    <path d="M365,120 L240,220" />
    <path d="M365,120 L365,170" />
    <path d="M365,120 L440,180" />
    <path d="M365,120 L490,140" />

    <path d="M240,250 L140,310" />
    <path d="M240,250 L200,310" />
    <path d="M240,250 L280,310" />
    <path d="M240,250 L350,310" />

    <path d="M365,190 L345,215" />
    <path d="M365,190 L365,215" />
    <path d="M365,190 L385,215" />

    <path d="M445,200 L425,230" />
    <path d="M445,200 L445,230" />
    <path d="M445,200 L465,230" />

    <path d="M515,145 L495,175" />
    <path d="M515,145 L515,175" />
    <path d="M515,145 L535,175" />
  </g>

    <text x="520" y="110" font-family="Arial, sans-serif" font-size="14" font-weight="bold" fill="black">API 2</text>
    <text x="620" y="110" font-family="Arial, sans-serif" font-size="14" font-weight="bold" fill="black">API 3</text>
  <g stroke="#333" stroke-width="1.5">
    <path d="M540,115 L520,140" />
    <path d="M540,115 L540,140" />
    <path d="M540,115 L560,140" />
    <path d="M540,140 L530,160" />
    <path d="M540,140 L550,160" />

    <path d="M640,115 L620,140" />
    <path d="M640,115 L640,140" />
    <path d="M640,115 L660,140" />
  </g>

  <g font-family="Arial, sans-serif" font-size="14" fill="#555">
    <text x="60" y="390">Wat zijn de velden in de data?</text>
    <text x="60" y="415">Hoe werkt pagineren?</text>
    <text x="60" y="440">Op welke velden kan je filteren / sorteren?</text>
    <text x="60" y="465">Wat betekenen de velden (semantiek)?</text>
  </g>

  <g transform="translate(500, 340)">
    <style>
      .problem-text { font-family: Arial, sans-serif; font-size: 16; font-weight: bold; fill: #333; }
      .x-mark { stroke: #E53E3E; stroke-width: 3; stroke-linecap: round; }
    </style>

    <g transform="translate(0, 0)">
      <line x1="0" y1="0" x2="15" y2="15" class="x-mark"/>
      <line x1="15" y1="0" x2="0" y2="15" class="x-mark"/>
      <text x="25" y="13" class="problem-text">Lange, ingewikkelde API specificaties</text>
    </g>

    <g transform="translate(0, 35)">
      <line x1="0" y1="0" x2="15" y2="15" class="x-mark"/>
      <line x1="15" y1="0" x2="0" y2="15" class="x-mark"/>
      <text x="25" y="13" class="problem-text">Inconsistente zoekmogelijkheden</text>
    </g>

    <g transform="translate(0, 70)">
      <line x1="0" y1="0" x2="15" y2="15" class="x-mark"/>
      <line x1="15" y1="0" x2="0" y2="15" class="x-mark"/>
      <text x="25" y="13" class="problem-text">Laag hergebruik datamodellen</text>
    </g>

    <g transform="translate(0, 105)">
      <line x1="0" y1="0" x2="15" y2="15" class="x-mark"/>
      <line x1="15" y1="0" x2="0" y2="15" class="x-mark"/>
      <text x="25" y="13" class="problem-text">Vendor lock-in (geen synchronisatie)</text>
    </g>

    <g transform="translate(0, 140)">
      <line x1="0" y1="0" x2="15" y2="15" class="x-mark"/>
      <line x1="15" y1="0" x2="0" y2="15" class="x-mark"/>
      <text x="25" y="13" class="problem-text">Geen real-time data</text>
    </g>
  </g>
</svg>
